#!OML:ASF H:\GeneralSubjects\Female5\Project 1\Capture day 1\Session 1\Female5.ASF
:FULLY-SPECIFIED
:DEGREES
644
root -26.5064 15.6274 1.15081 -166.399 -29.727 -187.469
lowerback 8.0593 2.40225 -6.38387
upperback -7.34949 1.43781 -4.32922
thorax -12.6695 0.817343 -1.4034
lowerneck -22.4005 -0.8653 4.31091
upperneck 32.3306 -6.01325 4.13212
head 15.1319 -1.88573 -0.310286
rclavicle -4.34841e-015 6.04305e-014
rhumerus -6.84034 54.7141 -68.5344
rradius 132.41
rwrist -43.2745
rhand 5.56065 -6.5827
rfingers 7.12502
rthumb 30.9046 -34.0023
lclavicle -4.34841e-015 6.04305e-014
lhumerus -35.8541 3.1785 74.6167
lradius 41.7457
lwrist 3.37214
lhand -26.6903 36.6643
lfingers 7.12502
lthumb -0.120922 66.644
rfemur -118.449 -57.6235 129.908
rtibia -1.2105
rfoot 54.2122 42.5918
rtoes 14.8555
lfemur 2.56818 -17.0082 -40.2902
ltibia -9.98987
lfoot -17.3601 20.3316
ltoes -56.6817
645
root -26.5272 15.6249 1.22721 -166.732 -28.6223 -187.279
lowerback 8.19718 2.42113 -6.41711
upperback -7.27771 1.44242 -4.37866
thorax -12.6723 0.817767 -1.44251
lowerneck -22.5718 -0.827093 4.59598
upperneck 32.0042 -6.11859 4.34432
head 15.0265 -1.86777 -0.291221
rclavicle -3.41413e-014 3.26007e-014
rhumerus -7.17164 54.4131 -68.9783
rradius 132.334
rwrist -42.4553
rhand 4.56914 -6.30128
rfingers 7.12502
rthumb 29.9589 -33.896
lclavicle -3.41413e-014 3.26007e-014
lhumerus -36.2018 4.21678 73.9457
lradius 39.4735
lwrist 2.44939
lhand -26.7486 36.4345
lfingers 7.12502
lthumb -0.177287 66.4142
rfemur -82.7894 -60.7839 88.6022
rtibia -3.50505
rfoot 42.6306 24.4983
rtoes 14.6448
lfemur 2.67092 -14.7575 -40.3298
ltibia -10.4276
lfoot -17.0815 18.8142
ltoes -55.7074
646
root -26.5463 15.6287 1.30042 -167.116 -27.5258 -187.003
lowerback 8.34732 2.42318 -6.45289
upperback -7.20531 1.43777 -4.34798
thorax -12.6829 0.821391 -1.39126
lowerneck -22.744 -0.779712 4.87046
upperneck 31.802 -6.21186 4.49891
head 14.9765 -1.85476 -0.293546
rclavicle -2.3233e-014 7.23576e-014
rhumerus -7.33192 54.1519 -69.2047
rradius 132.267
rwrist -41.7374
rhand 3.7434 -6.12447
rfingers 7.12502
rthumb 29.1707 -33.8587
lclavicle -2.3233e-014 7.23576e-014
lhumerus -36.5206 5.36786 73.2676
lradius 37.0492
lwrist 1.26664
lhand -26.9343 36.2003
lfingers 7.12502
lthumb -0.356651 66.1797
rfemur -54.2016 -52.1168 53.9266
rtibia -4.53344
rfoot 34.1814 6.02455
rtoes 14.2566
lfemur 2.7836 -12.5004 -40.3164
ltibia -10.8155
lfoot -16.7383 17.3691
ltoes -54.8243
647
root -26.5626 15.6379 1.37068 -167.535 -26.4565 -186.636
lowerback 8.50306 2.40228 -6.49447
upperback -7.14083 1.41433 -4.23834
thorax -12.7071 0.823734 -1.24724
lowerneck -22.8858 -0.722869 5.14751
upperneck 31.6992 -6.29702 4.60653
head 14.9631 -1.84631 -0.315066
rclavicle 1.42131e-014 4.77083e-014
rhumerus -7.31501 53.9327 -69.2354
rradius 132.191
rwrist -41.1418
rhand 3.08357 -6.07731
rfingers 7.12502
rthumb 28.5404 -33.9192
lclavicle 1.42131e-014 4.77083e-014
lhumerus -36.8443 6.60608 72.5769
lradius 34.566
lwrist -0.199337
lhand -27.1599 36.0206
lfingers 7.12502
lthumb -0.574511 65.9995
rfemur -40.2832 -37.6059 33.0584
rtibia -4.42361
rfoot 25.7993 -12.1085
rtoes 13.9293
lfemur 2.89316 -10.259 -40.2351
ltibia -11.1662
lfoot -16.3483 16.0011
ltoes -54.0939
648
root -26.5761 15.6515 1.43768 -167.976 -25.4353 -186.186
lowerback 8.65777 2.35761 -6.5381
upperback -7.0988 1.36831 -4.05909
thorax -12.757 0.821658 -1.02229
lowerneck -22.9394 -0.668857 5.42206
upperneck 31.6559 -6.39067 4.69263
head 14.9566 -1.84948 -0.346815
rclavicle -4.81307e-014 7.39479e-014
rhumerus -7.19255 53.7569 -69.1423
rradius 132.108
rwrist -40.6989
rhand 2.56108 -6.18267
rfingers 7.12502
rthumb 28.0411 -34.1073
lclavicle -4.81307e-014 7.39479e-014
lhumerus -37.2262 7.881 71.8729
lradius 32.1288
lwrist -1.97274
lhand -27.329 35.9155
lfingers 7.12502
lthumb -0.737893 65.894
rfemur -34.3605 -21.1232 18.7325
rtibia -3.62134
rfoot 14.897 -29.2106
rtoes 14.0198
lfemur 2.99942 -8.05729 -40.0854
ltibia -11.5009
lfoot -15.9179 14.718
ltoes -53.5213
649
root -26.5869 15.6685 1.50064 -168.426 -24.48 -185.672
lowerback 8.80327 2.29455 -6.57966
upperback -7.08665 1.3036 -3.82991
thorax -12.8357 0.814844 -0.74072
lowerneck -22.8768 -0.642844 5.66884
upperneck 31.6422 -6.52633 4.79203
head 14.9394 -1.87873 -0.376262
rclavicle -4.67144e-014 1.43125e-014
rhumerus -7.06203 53.6168 -69.0118
rradius 132.026
rwrist -40.4375
rhand 2.20914 -6.40591
rfingers 7.12502
rthumb 27.7046 -34.3851
lclavicle -4.67144e-014 1.43125e-014
lhumerus -37.6996 9.10839 71.1665
lradius 29.8483
lwrist -4.03501
lhand -27.3537 35.8483
lfingers 7.12502
lthumb -0.761719 65.8267
rfemur -32.7803 -4.13549 6.43659
rtibia -2.86368
rfoot -2.40651 -43.7428
rtoes 14.9391
lfemur 3.10996 -5.91538 -39.8766
ltibia -11.8378
lfoot -15.4644 13.5112
ltoes -52.9861
650
root -26.5955 15.688 1.55882 -168.876 -23.6021 -185.114
lowerback 8.9403 2.21406 -6.62389
upperback -7.09962 1.21971 -3.55896
thorax -12.938 0.80285 -0.408186
lowerneck -22.7313 -0.662142 5.86341
upperneck 31.6495 -6.7203 4.91064
head 14.916 -1.94173 -0.400105
rclavicle 7.26558e-014 -9.62118e-014
rhumerus -6.9359 53.5293 -68.8534
rradius 131.95
rwrist -40.361
rhand 2.04766 -6.68445
rfingers 7.12502
rthumb 27.5502 -34.6884
lclavicle 7.26558e-014 -9.62118e-014
lhumerus -38.2705 10.216 70.4906
lradius 27.8321
lwrist -6.2897
lhand -27.1942 35.7713
lfingers 7.12502
lthumb -0.607659 65.7501
rfemur -34.5215 15.4374 -3.1961
rtibia -2.16485
rfoot -21.4496 -55.8938
rtoes 3.89273
lfemur 3.23348 -3.84584 -39.6149
ltibia -12.1895
lfoot -15.0094 12.3517
ltoes -52.3773
